<?xml version="1.0" standalone="no"?>
<!DOCTYPE svg PUBLIC "-//W3C//DTD SVG 20010904//EN"
 "http://www.w3.org/TR/2001/REC-SVG-20010904/DTD/svg10.dtd">
<svg version="1.0" xmlns="http://www.w3.org/2000/svg"
 width="798.000000pt" height="798.000000pt" viewBox="0 0 798.000000 798.000000"
 preserveAspectRatio="xMidYMid meet">
<metadata>
Created by potrace 1.14, written by Peter Selinger 2001-2017
</metadata>
<g transform="translate(0.000000,798.000000) scale(0.100000,-0.100000)"
fill="#000000" stroke="none">
<path d="M2498 7825 c-3 -3 -49 -8 -102 -10 -93 -4 -211 -14 -251 -21 -17 -3
-155 -31 -190 -39 -57 -12 -237 -68 -310 -97 -147 -59 -350 -162 -396 -201
-10 -9 -26 -17 -34 -17 -8 0 -15 -4 -15 -9 0 -5 -17 -20 -37 -32 -46 -28 -41
-25 -128 -96 -38 -32 -78 -65 -88 -73 -60 -49 -253 -249 -317 -329 -19 -24
-40 -48 -46 -55 -32 -35 -129 -185 -177 -276 -56 -105 -147 -320 -147 -346 0
-8 -5 -14 -12 -14 -6 0 -9 -3 -6 -6 4 -3 -5 -38 -18 -77 -14 -40 -26 -81 -29
-92 -2 -11 -6 -29 -9 -40 -19 -80 -37 -174 -42 -222 -3 -31 -8 -66 -10 -77 -4
-17 -15 -222 -15 -261 0 -46 12 -248 17 -280 3 -22 7 -53 9 -70 2 -16 4 -30 5
-30 1 0 3 -9 5 -20 7 -50 17 -101 21 -106 2 -3 6 -21 9 -40 11 -63 60 -211
100 -304 179 -411 472 -759 853 -1012 105 -70 285 -168 377 -205 49 -20 156
-59 170 -63 6 -1 17 -5 25 -8 19 -8 98 -28 125 -32 11 -2 31 -6 45 -9 47 -9
165 -24 215 -26 170 -9 474 1 565 19 25 5 48 7 52 5 5 -3 8 0 8 6 0 6 4 9 9 6
5 -3 22 -2 37 3 16 5 70 22 119 37 50 15 118 40 153 55 34 16 62 25 62 22 0
-3 9 2 21 13 12 10 23 18 25 16 8 -5 191 90 241 126 17 12 34 22 38 22 4 0 28
15 53 32 45 32 55 39 86 66 8 6 18 12 21 12 6 0 10 3 65 50 64 56 60 56 135
-26 38 -42 78 -88 89 -102 11 -15 32 -39 46 -53 14 -14 41 -45 60 -69 19 -24
50 -59 68 -79 19 -20 48 -53 65 -74 18 -21 41 -49 52 -61 11 -12 43 -49 70
-81 46 -53 142 -166 205 -239 46 -53 245 -250 299 -296 167 -141 352 -236 516
-265 158 -28 358 -27 489 1 11 3 32 7 46 10 105 20 304 107 416 182 31 20 64
42 73 47 8 6 43 38 76 72 77 78 99 135 99 250 -1 51 -6 88 -14 98 -7 8 -10 15
-6 15 15 0 -43 89 -85 131 -122 124 -280 137 -454 40 -27 -16 -95 -54 -149
-84 -144 -81 -254 -101 -376 -67 -47 13 -103 40 -108 53 -2 4 -8 7 -14 7 -35
0 -195 140 -313 274 -33 38 -77 87 -97 110 -57 65 -138 168 -138 175 0 15 297
205 380 243 34 16 90 40 100 43 3 1 43 13 90 28 47 14 100 29 119 32 19 3 37
7 40 9 30 18 321 26 416 12 130 -20 311 -78 407 -131 80 -44 169 -99 187 -117
11 -10 24 -18 30 -18 5 0 11 -4 13 -8 2 -4 23 -23 47 -42 100 -79 304 -302
369 -405 32 -50 112 -211 112 -225 0 -6 4 -18 10 -28 9 -17 48 -144 56 -186
37 -189 46 -347 30 -501 -8 -79 -22 -160 -26 -160 -1 0 -4 -16 -7 -35 -2 -19
-20 -80 -39 -135 -19 -55 -35 -104 -37 -110 -13 -55 -177 -336 -224 -383 -7
-7 -13 -16 -13 -20 0 -4 -18 -26 -40 -50 -22 -24 -40 -47 -40 -52 0 -6 -4 -10
-10 -10 -5 0 -31 -23 -57 -51 -26 -28 -77 -74 -113 -102 -36 -28 -67 -54 -70
-57 -32 -38 -386 -230 -408 -221 -1 1 -15 -5 -32 -14 -16 -8 -38 -15 -50 -15
-11 0 -20 -4 -20 -8 0 -5 -6 -9 -12 -10 -7 0 -60 -10 -117 -21 -136 -28 -216
-35 -381 -35 -159 1 -222 8 -355 39 -347 83 -697 338 -885 645 -18 30 -40 66
-49 80 -8 14 -16 27 -17 30 -1 5 -43 100 -64 145 -5 11 -21 58 -36 105 -14 47
-28 92 -31 100 -3 8 -7 26 -9 40 -2 14 -6 41 -10 60 -16 78 -23 304 -12 383 3
23 1 37 -6 38 -30 3 -64 7 -91 12 -16 4 -52 9 -80 12 -46 6 -92 12 -155 21
-14 2 -38 5 -55 7 -63 9 -141 19 -158 23 -10 2 -46 6 -80 9 -34 4 -65 9 -69
11 -5 3 -9 -12 -9 -33 -1 -21 -3 -51 -6 -68 -2 -16 -5 -106 -5 -200 -1 -155 2
-215 16 -285 2 -14 7 -43 10 -65 7 -53 36 -196 43 -215 3 -8 7 -22 9 -30 4
-19 34 -120 41 -140 4 -8 7 -17 8 -20 1 -3 7 -18 13 -33 7 -16 12 -31 12 -34
0 -11 110 -244 120 -253 3 -3 14 -23 25 -44 11 -22 25 -44 30 -50 6 -6 22 -31
37 -56 68 -117 247 -316 398 -442 128 -107 129 -108 138 -108 4 0 23 -14 42
-30 19 -16 38 -30 42 -30 4 0 35 -18 69 -40 34 -22 68 -40 75 -40 7 0 14 -3
16 -7 4 -11 175 -93 193 -93 8 0 15 -5 15 -10 0 -6 3 -9 7 -8 5 0 15 -1 23 -5
41 -16 228 -78 245 -81 11 -2 47 -11 80 -20 33 -8 78 -18 99 -22 21 -3 48 -8
60 -10 11 -3 64 -7 116 -9 89 -4 116 -4 221 -5 23 -1 45 -1 48 -2 3 0 8 0 11
1 3 1 56 4 118 6 105 3 158 8 222 20 14 2 41 7 60 9 19 3 62 13 95 22 33 9 67
18 75 19 8 2 15 4 15 5 0 1 7 3 16 5 30 5 204 66 239 83 19 9 37 17 40 17 3 1
19 8 35 15 17 7 32 14 35 15 3 0 16 7 30 15 14 8 27 15 30 15 12 3 110 53 122
62 7 5 33 21 58 34 25 13 49 27 55 32 5 4 42 30 80 57 39 27 90 66 114 87 24
21 50 42 57 46 23 13 226 218 279 282 28 33 55 65 60 71 6 6 17 22 25 34 8 13
23 32 33 42 9 10 17 20 17 22 0 2 24 41 54 85 30 45 52 81 48 81 -4 0 -2 4 4
8 6 4 26 36 44 72 19 36 40 73 48 83 9 9 12 17 8 17 -5 0 1 15 12 34 48 81
151 392 176 531 3 17 8 39 10 51 2 12 7 45 11 74 4 29 9 62 11 74 4 21 17 262
15 281 0 6 -3 48 -5 95 -4 92 -12 166 -27 244 -5 26 -6 52 -3 57 3 5 0 9 -7 9
-7 0 -10 2 -7 6 3 3 -3 37 -13 76 -10 39 -17 74 -17 77 1 3 -1 13 -5 21 -3 8
-20 60 -38 115 -18 54 -46 131 -64 170 -17 38 -40 89 -50 113 -11 23 -22 42
-27 42 -4 0 -8 5 -8 10 0 26 -147 244 -235 350 -26 30 -261 266 -285 285 -14
11 -45 36 -70 56 -85 69 -235 163 -365 229 -124 64 -221 105 -228 98 -1 -2
-15 5 -29 14 -14 10 -37 19 -50 22 -23 4 -41 10 -75 23 -10 3 -22 7 -28 8 -5
2 -46 12 -90 23 -44 11 -98 23 -120 27 -68 12 -84 15 -112 20 -51 9 -227 19
-323 18 -89 -1 -139 -5 -235 -17 -94 -12 -116 -15 -123 -20 -4 -2 -23 -7 -42
-10 -77 -12 -371 -115 -390 -136 -3 -3 -45 -25 -95 -49 -49 -25 -94 -49 -100
-53 -5 -5 -48 -31 -95 -59 -95 -57 -229 -143 -247 -159 -7 -5 -17 -10 -23 -10
-12 0 -163 150 -227 226 -23 27 -52 60 -64 74 -11 14 -37 45 -57 69 -21 24
-44 51 -52 60 -9 9 -49 57 -90 106 -41 50 -77 92 -80 95 -3 3 -25 30 -50 60
-72 88 -82 100 -140 163 -81 89 -185 189 -255 245 -70 56 -205 133 -315 179
-71 30 -94 38 -137 48 -10 2 -36 9 -58 14 -67 17 -145 25 -240 24 -76 0 -200
-8 -200 -13 0 -1 -9 -3 -19 -5 -62 -12 -238 -65 -246 -74 -3 -3 -12 -7 -20 -9
-38 -8 -202 -95 -258 -137 -116 -87 -163 -174 -165 -305 0 -39 10 -92 26 -130
6 -14 11 -27 11 -30 3 -13 43 -68 67 -91 32 -32 101 -73 149 -88 92 -28 153
-17 309 56 97 45 128 59 146 63 6 1 26 8 45 16 86 33 231 42 320 19 99 -26
224 -109 341 -228 42 -41 192 -214 258 -297 19 -23 41 -49 49 -57 18 -17 11
-24 -98 -104 -102 -75 -300 -189 -300 -173 0 3 -6 1 -14 -5 -14 -12 -171 -69
-211 -77 -11 -2 -33 -7 -50 -11 -16 -3 -37 -7 -45 -9 -8 -1 -26 -5 -40 -9 -37
-10 -357 -14 -394 -5 -17 5 -67 16 -111 25 -44 10 -106 28 -137 41 -32 12 -58
20 -58 18 0 -9 -186 91 -260 139 -137 91 -260 203 -369 336 -57 69 -151 207
-151 221 0 5 -3 10 -7 12 -26 11 -135 297 -148 386 -3 20 -8 48 -10 62 -18 94
-26 392 -14 470 13 80 20 114 31 155 5 22 12 47 13 55 2 8 4 16 5 18 2 1 3 6
4 11 0 5 4 13 8 17 5 4 8 14 8 23 0 9 12 43 26 76 14 33 26 65 28 70 3 14 73
155 94 190 40 67 77 123 121 180 56 73 207 227 276 281 28 21 52 42 55 45 24
28 290 187 290 174 0 -4 7 0 15 8 18 19 163 72 280 102 85 23 106 27 215 42
102 15 446 5 500 -14 8 -3 29 -7 45 -10 17 -2 67 -15 112 -29 46 -13 84 -24
85 -22 2 1 17 -5 33 -14 17 -9 53 -26 80 -39 28 -13 79 -40 114 -61 34 -21 65
-38 67 -38 14 0 145 -110 225 -190 90 -88 209 -236 209 -259 0 -5 4 -11 8 -13
19 -8 147 -273 157 -327 2 -9 4 -16 5 -16 1 0 3 -7 5 -15 1 -8 10 -42 18 -75
31 -119 40 -208 40 -388 0 -105 3 -160 11 -164 13 -9 14 -9 101 -17 67 -6 117
-11 215 -21 25 -3 72 -7 105 -10 109 -11 130 -13 130 -15 0 0 30 -3 68 -5 l67
-5 1 48 c6 212 -2 504 -16 552 -2 8 -6 33 -9 55 -3 22 -10 65 -17 95 -6 30
-12 62 -13 70 -1 8 -6 25 -10 37 -4 12 -8 30 -10 40 -22 109 -139 380 -229
528 -22 36 -120 180 -127 185 -3 3 -13 17 -22 31 -46 72 -242 271 -354 359
-71 55 -192 140 -200 140 -3 0 -18 8 -32 19 -85 60 -371 186 -487 215 -5 2
-30 9 -55 16 -25 7 -52 14 -60 16 -8 1 -26 5 -40 8 -46 11 -74 16 -135 26
-117 18 -151 21 -265 23 -63 1 -118 5 -121 10 -3 4 -8 5 -11 2z"/>
</g>
</svg>
